# xmcd
#
# Track frame offsets: 
#        182
#        18570
#        36857
#        50895
#        67020
#        82210
#        99920
#        117920
#        133195
#        153300
#        168307
#        183652
#
# Disc length: 2660 seconds
#
# Revision: 2
# Processed by: cddbd v1.5.1PL2 Copyright (c) Steve Scherf et al.
# Submitted via: ExactAudioCopy v0.95b3
#
DISCID=aa0a620c
DTITLE=Leandro E Leonardo - Leandro E Leonardo
DYEAR=1900
DGENRE=Country
TTITLE0=Sonho Por Sonho
TTITLE1=Gostoso Sentimento
TTITLE2=Não Aprendi a Dizer Adeus
TTITLE3=Bate Coração
TTITLE4=Sabor De Mim
TTITLE5=Me Dê Um Sinal
TTITLE6=Mensagem
TTITLE7=Estou Na Mão Desta Mulher
TTITLE8=A Rotina (Fim De Semana)
TTITLE9=Não Olhe Assim
TTITLE10=Amores São Coisas Da Vida
TTITLE11=Paz Na Cama
EXTD=
EXTT0=(Chico Roque - Carlos Colla) Ed. Sigem
EXTT1=(Zez  Di Camargo - F tima Le o) Ed. Embi
EXTT2=(Joel Marques) Ed. BMG Arabella
EXTT3=(Altay Veloso) Ed. Phonogram/Latino
EXTT4=(Paulo Deb tio - Paulinho Rezende/Julinho Teixeira) Ed. Phonogra
EXTT4=m
EXTT5=(Zez  Di Camargo) Ed. Embi
EXTT6=(Altay Veloso - Aladim Teixeira) Ed. Phonogram/Latina
EXTT7=(Zez  Di Camargo) Ed. Embi
EXTT8=(Franco - Jotha Luiz - Wilson S ) Ed. Latino
EXTT9=(Cesar Augusto - Cesar Rossini) Ed. BMG Arabella/Warner/Chappell
EXTT10=(Piska - Cesar Augusto) Ed. Latino/BMG Arabella
EXTT11=(EdsonMello - Rhael) Ed. Latino/BMG Arabella
PLAYORDER=
